<?xml version="1.0" standalone="no"?>
<!DOCTYPE svg PUBLIC "-//W3C//DTD SVG 20010904//EN"
 "http://www.w3.org/TR/2001/REC-SVG-20010904/DTD/svg10.dtd">
<svg version="1.0" xmlns="http://www.w3.org/2000/svg"
 width="512.000000pt" height="512.000000pt" viewBox="0 0 512.000000 512.000000"
 preserveAspectRatio="xMidYMid meet">

<g transform="translate(0.000000,512.000000) scale(0.100000,-0.100000)"
fill="#000000" stroke="none">
<path d="M2210 4835 c-321 -65 -578 -319 -644 -638 -9 -42 -16 -96 -16 -121
l0 -44 -297 -4 c-289 -5 -301 -6 -388 -32 -292 -88 -499 -302 -577 -596 l-23
-85 0 -1320 c0 -1250 1 -1323 18 -1385 81 -285 335 -413 614 -309 32 12 261
135 508 273 l450 251 65 0 65 0 450 -252 c528 -295 557 -307 715 -301 90 3
113 8 165 33 75 36 163 122 198 195 54 113 57 140 57 577 0 222 1 403 3 403 2
0 133 -72 291 -161 159 -88 318 -172 354 -185 284 -108 543 23 617 311 13 52
15 226 15 1368 0 1153 -2 1317 -16 1384 -66 323 -325 576 -652 639 -104 20
-1873 19 -1972 -1z m1946 -319 c127 -34 252 -132 311 -243 67 -126 64 -33 61
-1469 -3 -1234 -4 -1301 -21 -1332 -26 -48 -76 -67 -138 -52 -26 7 -163 76
-306 156 -142 79 -308 172 -370 207 l-112 62 -4 735 c-3 712 -4 738 -25 816
-43 166 -117 290 -241 406 -111 104 -209 159 -367 205 -52 15 -121 17 -566 21
l-508 3 0 38 c0 93 64 232 144 312 61 61 118 96 206 126 l65 22 910 1 c738 0
920 -3 961 -14z m-1281 -831 c127 -34 237 -118 309 -238 69 -115 66 -56 66
-1459 0 -880 -3 -1275 -11 -1302 -16 -58 -58 -96 -106 -96 -21 1 -54 7 -74 14
-21 7 -224 117 -453 245 -538 300 -523 293 -650 299 -118 5 -189 -7 -266 -47
-30 -15 -235 -128 -455 -251 -417 -233 -472 -260 -531 -260 -45 0 -87 40 -103
96 -8 27 -11 424 -11 1309 0 1399 -3 1325 62 1447 58 110 157 191 288 235 l65
22 905 1 c782 0 914 -2 965 -15z"/>
</g>
</svg>
